# This file uses centimeters as units for non-parametric coordinates.

mtllib Compulsory 3 export.mtl
g default
v -2.870009 6.054445 1.866912
v -3.042146 6.054445 1.855684
v -3.209328 6.054445 1.898198
v -3.355190 6.054445 1.990293
v -3.465454 6.054445 2.122955
v -3.529326 6.054445 2.283197
v -3.540555 6.054445 2.455334
v -3.498041 6.054445 2.622515
v -3.405946 6.054445 2.768377
v -3.273285 6.054445 2.878641
v -3.113042 6.054445 2.942514
v -2.940905 6.054445 2.953743
v -2.773724 6.054445 2.911229
v -2.627862 6.054445 2.819134
v -2.517598 6.054445 2.686472
v -2.453725 6.054445 2.526230
v -2.442496 6.054445 2.354093
v -2.485010 6.054445 2.186911
v -2.577106 6.054445 2.041049
v -2.709767 6.054445 1.930785
v -2.870009 6.103060 1.866912
v -3.042146 6.103060 1.855684
v -3.209328 6.103060 1.898198
v -3.355190 6.103060 1.990293
v -3.465454 6.103060 2.122955
v -3.529326 6.103060 2.283197
v -3.540555 6.103060 2.455334
v -3.498041 6.103060 2.622515
v -3.405946 6.103060 2.768377
v -3.273285 6.103060 2.878641
v -3.113042 6.103060 2.942514
v -2.940905 6.103060 2.953743
v -2.773724 6.103060 2.911229
v -2.627862 6.103060 2.819134
v -2.517598 6.103060 2.686472
v -2.453725 6.103060 2.526230
v -2.442496 6.103060 2.354093
v -2.485010 6.103060 2.186911
v -2.577106 6.103060 2.041049
v -2.709767 6.103060 1.930785
v -2.991526 6.054445 2.404713
v -2.991526 6.103060 2.404713
vt 0.909850 0.017630
vt 0.940992 0.040257
vt 0.853994 0.127254
vt 0.873240 0.005735
vt 0.834747 0.005735
vt 0.798138 0.017630
vt 0.766996 0.040256
vt 0.744370 0.071397
vt 0.732475 0.108006
vt 0.732475 0.146500
vt 0.744370 0.183110
vt 0.766996 0.214251
vt 0.798137 0.236877
vt 0.834747 0.248772
vt 0.873240 0.248772
vt 0.909849 0.236877
vt 0.940991 0.214252
vt 0.963617 0.183110
vt 0.975513 0.108007
vt 0.975513 0.146501
vt 0.372828 0.248774
vt 0.411321 0.248774
vt 0.449814 0.248774
vt 0.488307 0.248773
vt 0.526801 0.248773
vt 0.565294 0.248773
vt 0.603786 0.248773
vt 0.642280 0.248772
vt 0.680773 0.248772
vt 0.719266 0.248772
vt 0.757759 0.248772
vt 0.796253 0.248772
vt 0.911734 0.248773
vt 0.950227 0.248773
vt 0.295840 0.248774
vt 0.334335 0.248774
vt 0.766996 0.294142
vt 0.744370 0.325284
vt 0.988719 0.248773
vt 0.940991 0.294141
vt 0.975512 0.361892
vt 0.940991 0.468136
vt 0.963617 0.436994
vt 0.975512 0.400385
vt 0.909849 0.271516
vt 0.873240 0.259621
vt 0.834747 0.259621
vt 0.798137 0.271516
vt 0.963617 0.071398
vt 0.732475 0.400386
vt 0.766997 0.468137
vt 0.744371 0.436995
vt 0.798138 0.490762
vt 0.834748 0.502657
vt 0.873241 0.502657
vt 0.909850 0.490762
vt 0.853994 0.381139
vt 0.988720 0.259622
vt 0.011280 0.248774
vt 0.134315 0.248774
vt 0.134315 0.259622
vt 0.011280 0.259622
vt 0.257348 0.248774
vt 0.732475 0.361893
vt 0.334335 0.259622
vt 0.372828 0.259622
vt 0.295840 0.259622
vt 0.257348 0.259622
vt 0.950227 0.259621
vt 0.963616 0.325283
vt 0.911733 0.259621
vt 0.796253 0.259621
vt 0.757759 0.259621
vt 0.719266 0.259621
vt 0.680773 0.259621
vt 0.642280 0.259621
vt 0.603787 0.259621
vt 0.565294 0.259621
vt 0.526801 0.259622
vt 0.488307 0.259622
vt 0.449814 0.259622
vt 0.411321 0.259622
vn 0.220395 0.000000 -0.975411
vn -0.091810 0.000000 -0.995777
vn -0.091810 0.000000 -0.995777
vn 0.220395 0.000000 -0.975411
vn -0.395027 0.000000 -0.918669
vn -0.395027 0.000000 -0.918669
vn -0.659580 0.000000 -0.751635
vn -0.659580 0.000000 -0.751635
vn -0.859566 0.000000 -0.511025
vn -0.859566 0.000000 -0.511025
vn -0.975411 0.000000 -0.220395
vn -0.975411 0.000000 -0.220395
vn -0.995777 0.000000 0.091810
vn -0.995777 0.000000 0.091810
vn -0.918669 0.000000 0.395029
vn -0.918669 0.000000 0.395029
vn -0.751636 0.000000 0.659578
vn -0.751636 0.000000 0.659578
vn -0.511027 0.000000 0.859564
vn -0.511027 0.000000 0.859564
vn -0.220394 0.000000 0.975411
vn -0.220394 0.000000 0.975411
vn 0.091811 0.000000 0.995776
vn 0.091811 0.000000 0.995776
vn 0.395029 0.000000 0.918669
vn 0.395029 0.000000 0.918669
vn 0.659579 0.000000 0.751635
vn 0.659579 0.000000 0.751635
vn 0.859564 0.000000 0.511028
vn 0.859564 0.000000 0.511028
vn 0.975411 0.000000 0.220395
vn 0.975411 0.000000 0.220395
vn 0.997879 0.000000 0.065094
vn 0.997879 0.000000 0.065094
vn 0.845562 0.000000 -0.533878
vn 0.751636 0.000000 -0.659579
vn 0.751636 0.000000 -0.659579
vn 0.845562 0.000000 -0.533878
vn 0.511028 0.000000 -0.859564
vn 0.511028 0.000000 -0.859564
vn 0.000000 -1.000000 0.000000
vn 0.000000 -1.000000 0.000000
vn 0.000000 -1.000000 0.000000
vn 0.000000 -1.000000 0.000000
vn 0.000000 -1.000000 0.000000
vn 0.000000 -1.000000 0.000000
vn 0.000000 -1.000000 0.000000
vn 0.000000 -1.000000 0.000000
vn 0.000000 -1.000000 0.000000
vn 0.000000 -1.000000 0.000000
vn 0.000000 -1.000000 0.000000
vn 0.000000 -1.000000 0.000000
vn 0.000000 -1.000000 0.000000
vn 0.000000 -1.000000 0.000000
vn 0.000000 -1.000000 0.000000
vn 0.000000 -1.000000 0.000000
vn 0.000000 -1.000000 0.000000
vn 0.000000 -1.000000 0.000000
vn 0.000000 -1.000000 0.000000
vn 0.000000 -1.000000 0.000000
vn 0.000000 -1.000000 0.000000
vn 0.000000 1.000000 0.000000
vn 0.000000 1.000000 0.000000
vn 0.000000 1.000000 0.000000
vn 0.000000 1.000000 0.000000
vn 0.000000 1.000000 0.000000
vn 0.000000 1.000000 0.000000
vn 0.000000 1.000000 0.000000
vn 0.000000 1.000000 0.000000
vn 0.000000 1.000000 0.000000
vn -0.000000 1.000000 -0.000000
vn -0.000000 1.000000 -0.000000
vn 0.000000 1.000000 0.000000
vn 0.000000 1.000000 0.000000
vn 0.000000 1.000000 0.000000
vn 0.000000 1.000000 0.000000
vn 0.000000 1.000000 0.000000
vn -0.000000 1.000000 -0.000000
vn -0.000000 1.000000 -0.000000
vn 0.000000 1.000000 0.000000
vn 0.000000 1.000000 0.000000
vn 0.000000 1.000000 0.000000
vn 0.395029 0.000000 0.918669
vn 0.395029 0.000000 0.918669
vn 0.395029 0.000000 0.918669
vn 0.395029 0.000000 0.918669
vn -0.091810 0.000000 -0.995777
vn -0.091810 0.000000 -0.995777
vn -0.091810 0.000000 -0.995777
vn -0.091810 0.000000 -0.995777
s 1
g textureEditorIsolateSelectSet pCylinder3
usemtl blinn3SG
f 1/21/1 2/22/2 22/82/3 21/66/4
f 2/22/2 3/23/5 23/81/6 22/82/3
f 3/23/5 4/24/7 24/80/8 23/81/6
f 4/24/7 5/25/9 25/79/10 24/80/8
f 5/25/9 6/26/11 26/78/12 25/79/10
f 6/26/11 7/27/13 27/77/14 26/78/12
f 7/27/13 8/28/15 28/76/16 27/77/14
f 8/28/15 9/29/17 29/75/18 28/76/16
f 9/29/17 10/30/19 30/74/20 29/75/18
f 10/30/19 11/31/21 31/73/22 30/74/20
f 11/31/21 12/32/23 32/72/24 31/73/22
f 12/32/23 13/14/25 33/47/26 32/72/24
f 13/14/25 14/15/27 34/46/28 33/47/26
f 14/15/27 15/33/29 35/71/30 34/46/28
f 15/33/29 16/34/31 36/69/32 35/71/30
f 16/34/31 17/39/33 37/58/34 36/69/32
f 18/63/35 19/35/36 39/67/37 38/68/38
f 19/35/36 20/36/39 40/65/40 39/67/37
f 20/36/39 1/21/1 21/66/4 40/65/40
s 3
f 2/1/41 1/2/42 41/3/43
f 3/4/44 2/1/41 41/3/43
f 4/5/45 3/4/44 41/3/43
f 5/6/46 4/5/45 41/3/43
f 6/7/47 5/6/46 41/3/43
f 7/8/48 6/7/47 41/3/43
f 8/9/49 7/8/48 41/3/43
f 9/10/50 8/9/49 41/3/43
f 10/11/51 9/10/50 41/3/43
f 11/12/52 10/11/51 41/3/43
f 12/13/53 11/12/52 41/3/43
f 13/14/54 12/13/53 41/3/43
f 14/15/55 13/14/54 41/3/43
f 15/16/56 14/15/55 41/3/43
f 16/17/57 15/16/56 41/3/43
f 17/18/58 16/17/57 41/3/43
f 19/19/59 18/20/60 41/3/43
f 20/49/61 19/19/59 41/3/43
f 1/2/42 20/49/61 41/3/43
s 5
f 21/42/62 22/56/63 42/57/64
f 22/56/63 23/55/65 42/57/64
f 23/55/65 24/54/66 42/57/64
f 24/54/66 25/53/67 42/57/64
f 25/53/67 26/51/68 42/57/64
f 26/51/68 27/52/69 42/57/64
f 27/52/69 28/50/70 42/57/64
f 28/50/70 29/64/71 42/57/64
f 29/64/71 30/38/72 42/57/64
f 30/38/72 31/37/73 42/57/64
f 31/37/73 32/48/74 42/57/64
f 32/48/74 33/47/75 42/57/64
f 33/47/75 34/46/76 42/57/64
f 34/46/76 35/45/77 42/57/64
f 35/45/77 36/40/78 42/57/64
f 36/40/78 37/70/79 42/57/64
f 38/41/80 39/44/81 42/57/64
f 39/44/81 40/43/82 42/57/64
f 40/43/82 21/42/62 42/57/64
s off
f 41/60/83 18/63/84 38/68/85 42/61/86
f 17/59/87 41/60/88 42/61/89 37/62/90
